<svg width="45" height="45" viewBox="0 0 45 45" fill="none" xmlns="http://www.w3.org/2000/svg">
<path d="M40.7813 30.9375C40.4083 30.9375 40.0506 31.0856 39.7869 31.3494C39.5232 31.6131 39.375 31.9708 39.375 32.3437C39.375 32.9 39.2101 33.4438 38.9011 33.9063C38.592 34.3688 38.1528 34.7293 37.6388 34.9421C37.1249 35.155 36.5594 35.2107 36.0139 35.1022C35.4683 34.9937 34.9671 34.7258 34.5738 34.3325C34.1805 33.9391 33.9126 33.438 33.8041 32.8924C33.6956 32.3469 33.7513 31.7813 33.9641 31.2674C34.177 30.7535 34.5375 30.3143 35 30.0052C35.4625 29.6962 36.0063 29.5312 36.5625 29.5312C36.7264 29.5265 36.8883 29.4932 37.0407 29.4328L37.1954 29.3625L37.336 29.2922L37.4344 29.2078L37.6313 28.9969L37.786 28.7859C37.8248 28.704 37.8577 28.6194 37.8844 28.5328C37.8924 28.4392 37.8924 28.3451 37.8844 28.2515C37.8844 28.2515 37.9688 28.125 37.9688 28.125C37.9688 28.125 37.9688 28.0406 37.9688 27.9984C37.9768 27.9095 37.9768 27.8201 37.9688 27.7312C37.946 27.6367 37.908 27.5464 37.8563 27.464C37.8563 27.464 37.8563 27.3797 37.8563 27.3515L35.4235 23.6953C35.6142 23.3501 35.7428 22.9741 35.8032 22.5844C35.8095 22.533 35.8095 22.481 35.8032 22.4297C36.0844 22.4297 36.3797 22.5 36.675 22.5C37.048 22.5 37.4057 22.3518 37.6694 22.0881C37.9331 21.8244 38.0813 21.4667 38.0813 21.0937V14.0625C38.0813 13.6895 37.9331 13.3318 37.6694 13.0681C37.4057 12.8044 37.048 12.6562 36.675 12.6562C35.4568 12.606 34.2563 12.9611 33.2613 13.6659C32.2664 14.3708 31.5333 15.3856 31.1766 16.5515C30.8273 16.4953 30.4712 16.4953 30.1219 16.5515L28.8704 14.5969C28.4668 13.9819 27.9124 13.4805 27.26 13.1408C26.6076 12.8011 25.879 12.6342 25.1438 12.6562H22.5C22.1271 12.6562 21.7694 12.8044 21.5057 13.0681C21.242 13.3318 21.0938 13.6895 21.0938 14.0625C21.0938 14.4354 21.242 14.7931 21.5057 15.0568C21.7694 15.3206 22.1271 15.4687 22.5 15.4687H25.1438C25.3937 15.4683 25.6396 15.5313 25.8585 15.6518C26.0774 15.7723 26.2621 15.9464 26.3954 16.1578L27.7032 18.2812C27.5383 18.5669 27.4152 18.8747 27.3375 19.1953C26.2735 18.6499 25.095 18.3654 23.8993 18.3654C22.7036 18.3654 21.525 18.6499 20.461 19.1953C20.1567 19.3784 19.933 19.6697 19.8347 20.0109C19.7364 20.3521 19.7708 20.7179 19.9311 21.0348C20.0913 21.3516 20.3654 21.5962 20.6985 21.7193C21.0315 21.8424 21.3988 21.8349 21.7266 21.6984C22.3943 21.3254 23.1418 21.118 23.9063 21.0937C24.9296 21.0112 25.9446 21.3332 26.7333 21.9904C27.522 22.6477 28.0216 23.5879 28.125 24.6094C28.1256 24.8463 28.0973 25.0824 28.0407 25.3125H19.7719C19.7153 25.0824 19.6869 24.8463 19.6875 24.6094C19.674 24.4503 19.674 24.2903 19.6875 24.1312C19.732 23.819 19.6702 23.5009 19.5121 23.228C19.354 22.9551 19.1087 22.7432 18.8157 22.6265H18.7454C18.689 22.5781 18.6277 22.5357 18.5625 22.5H18.4079H18.2813H12.6563V18.9281C12.6563 17.6377 12.1437 16.4001 11.2312 15.4876C10.3187 14.5751 9.08111 14.0625 7.79067 14.0625C7.21631 14.0625 6.66547 14.2906 6.25934 14.6968C5.85321 15.1029 5.62504 15.6537 5.62504 16.2281V23.9062C5.62504 24.2792 5.7732 24.6369 6.03692 24.9006C6.30065 25.1643 6.65833 25.3125 7.03129 25.3125C7.40425 25.3125 7.76194 25.1643 8.02566 24.9006C8.28938 24.6369 8.43754 24.2792 8.43754 23.9062V16.9734C8.84561 17.1133 9.20013 17.3766 9.45206 17.7267C9.70399 18.0769 9.84087 18.4967 9.84379 18.9281V23.9062C9.84379 24.2792 9.99195 24.6369 10.2557 24.9006C10.5194 25.1643 10.8771 25.3125 11.25 25.3125H16.875C16.9616 26.0437 17.191 26.7508 17.55 27.3937C17.5828 27.4486 17.6205 27.5003 17.6625 27.5484L17.5079 27.8437C17.4662 27.9277 17.4021 27.9984 17.3227 28.048C17.2432 28.0977 17.1515 28.1243 17.0579 28.125H12.6563C12.5076 28.1314 12.3607 28.1598 12.2204 28.2094C11.3639 27.4186 10.283 26.9135 9.12696 26.7638C7.97096 26.6141 6.79699 26.8272 5.76738 27.3737C4.73776 27.9202 3.90336 28.773 3.37953 29.8144C2.85569 30.8557 2.66831 32.034 2.84327 33.1865C3.01824 34.339 3.54692 35.4086 4.35622 36.2475C5.16552 37.0864 6.21545 37.6532 7.36087 37.8695C8.50629 38.0858 9.69062 37.9409 10.7501 37.4548C11.8096 36.9687 12.6919 36.1655 13.275 35.1562H25.3125C25.6168 35.1562 25.9129 35.0575 26.1563 34.875C26.7935 34.3925 27.3613 33.8247 27.8438 33.1875C28.9283 31.6681 29.5176 29.8511 29.5313 27.9844C29.8043 27.8614 30.0309 27.6545 30.1782 27.3937C30.5625 26.7551 30.8203 26.0485 30.9375 25.3125C31.3568 25.486 31.8057 25.5767 32.2594 25.5797C32.5534 25.5761 32.846 25.5383 33.1313 25.4672L34.3125 27.239C33.3811 27.6456 32.5773 28.2969 31.9864 29.1237C31.3955 29.9505 31.0396 30.922 30.9566 31.9348C30.8736 32.9477 31.0665 33.9642 31.5149 34.8762C31.9633 35.7882 32.6504 36.5617 33.5031 37.1144C34.3559 37.6672 35.3425 37.9786 36.3581 38.0156C37.3737 38.0526 38.3804 37.8137 39.2711 37.3244C40.1618 36.8351 40.9033 36.1136 41.4168 35.2367C41.9303 34.3597 42.1967 33.36 42.1875 32.3437C42.1875 31.9708 42.0394 31.6131 41.7757 31.3494C41.5119 31.0856 41.1543 30.9375 40.7813 30.9375ZM8.43754 35.1562C7.88128 35.1562 7.33752 34.9913 6.875 34.6822C6.41249 34.3732 6.052 33.9339 5.83913 33.42C5.62626 32.9061 5.57056 32.3406 5.67908 31.795C5.7876 31.2495 6.05547 30.7483 6.4488 30.355C6.84214 29.9617 7.34328 29.6938 7.88885 29.5853C8.43442 29.4768 8.99992 29.5324 9.51384 29.7453C10.0278 29.9582 10.467 30.3187 10.7761 30.7812C11.0851 31.2437 11.25 31.7875 11.25 32.3437C11.25 33.0897 10.9537 33.805 10.4263 34.3325C9.89883 34.8599 9.18346 35.1562 8.43754 35.1562ZM25.5938 31.5C25.366 31.8073 25.1067 32.0901 24.8204 32.3437H14.0625C14.0553 31.8686 13.9891 31.3963 13.8657 30.9375H17.1C17.7177 30.9398 18.3235 30.7683 18.8482 30.4425C19.3729 30.1167 19.7954 29.6499 20.0672 29.0953L20.5594 28.125H26.7188C26.6823 29.3359 26.2911 30.5094 25.5938 31.5ZM35.1563 15.764V19.3922C34.7727 19.2563 34.4363 19.0131 34.1869 18.6915C33.9376 18.3699 33.786 17.9834 33.75 17.5781C33.786 17.1728 33.9376 16.7863 34.1869 16.4647C34.4363 16.1431 34.7727 15.8999 35.1563 15.764V15.764ZM31.6407 22.5L30.15 20.475C30.0913 20.4033 30.0495 20.3193 30.0276 20.2292C30.0057 20.1392 30.0043 20.0453 30.0235 19.9547C30.0478 19.7708 30.1439 19.604 30.2907 19.4906C30.3671 19.4354 30.4536 19.3959 30.5453 19.3742C30.637 19.3524 30.732 19.349 30.825 19.364C30.9157 19.3764 31.0026 19.4079 31.0802 19.4564C31.1578 19.5049 31.2242 19.5693 31.275 19.6453L32.7797 21.6703C32.8849 21.8221 32.93 22.0075 32.9063 22.1906C32.8717 22.3742 32.7718 22.539 32.625 22.6547C32.4729 22.7615 32.2852 22.8051 32.1016 22.7762C31.918 22.7473 31.7527 22.6483 31.6407 22.5V22.5Z" fill="#CFCFCF"/>
</svg>
