<svg width="30" height="30" viewBox="0 0 30 30" fill="none" xmlns="http://www.w3.org/2000/svg">
<rect width="30" height="30" fill="#FF0000" fill-opacity="0.01"/>
<path fill-rule="evenodd" clip-rule="evenodd" d="M24.2229 8.72678H20.6528L18.5163 6.54511C18.5163 6.54511 18.5053 6.53411 18.5004 6.53411L18.4894 6.52311C18.1729 6.20289 17.7451 6 17.2587 6H12.8159C12.2977 6 11.8381 6.22489 11.5154 6.583V6.58789L9.42667 8.72678H5.77711C4.79322 8.72678 4 9.50778 4 10.5027V21.3096C4 22.3032 4.79322 23.1111 5.77711 23.1111H24.2229C25.2007 23.1111 26 22.3032 26 21.3096V10.5027C26 9.50778 25.2019 8.72678 24.2229 8.72678ZM15 20.4112C12.3087 20.4112 10.1136 18.1868 10.1136 15.46C10.1136 12.7271 12.3087 10.5088 15 10.5088C17.6974 10.5088 19.8864 12.7283 19.8864 15.46C19.8864 18.1868 17.6974 20.4112 15 20.4112Z" fill="black"/>
<mask id="mask0_0_1929" style="mask-type:luminance" maskUnits="userSpaceOnUse" x="4" y="6" width="22" height="18">
<path fill-rule="evenodd" clip-rule="evenodd" d="M24.2229 8.72678H20.6528L18.5163 6.54511C18.5163 6.54511 18.5053 6.53411 18.5004 6.53411L18.4894 6.52311C18.1729 6.20289 17.7451 6 17.2587 6H12.8159C12.2977 6 11.8381 6.22489 11.5154 6.583V6.58789L9.42667 8.72678H5.77711C4.79322 8.72678 4 9.50778 4 10.5027V21.3096C4 22.3032 4.79322 23.1111 5.77711 23.1111H24.2229C25.2007 23.1111 26 22.3032 26 21.3096V10.5027C26 9.50778 25.2019 8.72678 24.2229 8.72678ZM15 20.4112C12.3087 20.4112 10.1136 18.1868 10.1136 15.46C10.1136 12.7271 12.3087 10.5088 15 10.5088C17.6974 10.5088 19.8864 12.7283 19.8864 15.46C19.8864 18.1868 17.6974 20.4112 15 20.4112Z" fill="white"/>
</mask>
<g mask="url(#mask0_0_1929)">
<rect width="30" height="30" fill="currentColor"/>
</g>
</svg>
