<svg width="30" height="30" viewBox="0 0 30 30" fill="none" xmlns="http://www.w3.org/2000/svg">
<rect width="30" height="30" fill="#FF0000" fill-opacity="0.01"/>
<path d="M16.952 15L24.596 7.356C25.1347 6.81733 25.1347 5.94267 24.596 5.404C24.0573 4.86533 23.1827 4.86533 22.644 5.404L15 13.048L7.356 5.404C6.81733 4.86533 5.94267 4.86533 5.404 5.404C4.86533 5.94267 4.86533 6.81733 5.404 7.356L13.048 15L5.404 22.644C4.86533 23.1827 4.86533 24.0573 5.404 24.596C5.94267 25.1347 6.81733 25.1347 7.356 24.596L15 16.952L22.644 24.596C23.1827 25.1347 24.0573 25.1347 24.596 24.596C25.1347 24.0573 25.1347 23.1827 24.596 22.644L16.952 15Z" fill="black"/>
<mask id="mask0_0_1990" style="mask-type:luminance" maskUnits="userSpaceOnUse" x="5" y="5" width="20" height="20">
<path d="M16.952 15L24.596 7.356C25.1347 6.81733 25.1347 5.94267 24.596 5.404C24.0573 4.86533 23.1827 4.86533 22.644 5.404L15 13.048L7.356 5.404C6.81733 4.86533 5.94267 4.86533 5.404 5.404C4.86533 5.94267 4.86533 6.81733 5.404 7.356L13.048 15L5.404 22.644C4.86533 23.1827 4.86533 24.0573 5.404 24.596C5.94267 25.1347 6.81733 25.1347 7.356 24.596L15 16.952L22.644 24.596C23.1827 25.1347 24.0573 25.1347 24.596 24.596C25.1347 24.0573 25.1347 23.1827 24.596 22.644L16.952 15Z" fill="white"/>
</mask>
<g mask="url(#mask0_0_1990)">
<rect width="30" height="30" fill="currentColor"/>
</g>
</svg>
