<svg width="25" height="25" viewBox="0 0 25 25" fill="none" xmlns="http://www.w3.org/2000/svg">
  <!-- Pin shape background -->
  <path d="M12.5 0C7.253 0 3 4.253 3 9.5C3 16.625 12.5 25 12.5 25C12.5 25 22 16.625 22 9.5C22 4.253 17.747 0 12.5 0Z" fill="#00A651"/>
  <!-- White circle background for icon -->
  <circle cx="12.5" cy="9.5" r="6" fill="#FFFFFF"/>
  <!-- Scooter silhouette -->
  <path d="M16.5 11.5L15.8 8.5C15.75 8.3 15.55 8.15 15.35 8.15H13.5V7.5C13.5 7.22 13.28 7 13 7H11C10.72 7 10.5 7.22 10.5 7.5V8.15H9.65C9.45 8.15 9.25 8.3 9.2 8.5L8.5 11.5C8.22 11.5 8 11.72 8 12C8 12.28 8.22 12.5 8.5 12.5H9.1C9.32 12.5 9.5 12.32 9.5 12.1V12C9.5 11.72 9.72 11.5 10 11.5C10.28 11.5 10.5 11.72 10.5 12V12.1C10.5 12.32 10.68 12.5 10.9 12.5H14.1C14.32 12.5 14.5 12.32 14.5 12.1V12C14.5 11.72 14.72 11.5 15 11.5C15.28 11.5 15.5 11.72 15.5 12V12.1C15.5 12.32 15.68 12.5 15.9 12.5H16.5C16.78 12.5 17 12.28 17 12C17 11.72 16.78 11.5 16.5 11.5Z" fill="#00A651"/>
</svg>
