<svg width="120" height="120" viewBox="0 0 120 120" fill="none" xmlns="http://www.w3.org/2000/svg">
<path d="M106.087 37.8L105.45 36.3C104.244 33.4497 102.762 30.7242 101.025 28.1625C99.9375 26.625 98.775 25.125 97.5375 23.7C95.7597 21.6782 93.8154 19.8091 91.725 18.1125C87.8111 14.9406 83.4191 12.4091 78.7125 10.6125C77.1889 10.034 75.6369 9.53334 74.0625 9.11254C70.1534 8.03691 66.1169 7.4945 62.0625 7.50004C61.0679 7.50004 60.1141 7.89513 59.4108 8.59839C58.7076 9.30165 58.3125 10.2555 58.3125 11.25C58.3125 12.2446 58.7076 13.1984 59.4108 13.9017C60.1141 14.605 61.0679 15 62.0625 15C65.4576 15.0011 68.8374 15.4551 72.1125 16.35C75.4846 17.2662 78.724 18.6149 81.75 20.3625C85.558 22.5491 88.979 25.3492 91.875 28.65C92.9376 29.8388 93.9269 31.0912 94.8375 32.4C95.8998 34.0348 96.8519 35.7386 97.6875 37.5C92.8875 35.475 86.4375 33.15 80.4 35.4375C74.3625 37.725 70.0125 43.9125 67.95 52.5C65.8875 61.0875 67.0875 68.475 71.0625 72.9375C73.8849 75.6933 77.5345 77.4457 81.45 77.925C84.3375 78.5625 85.7625 78.975 86.25 79.95C86.4926 80.5038 86.5707 81.1156 86.475 81.7125C86.2239 83.0323 85.5057 84.2173 84.4519 85.0507C83.3982 85.884 82.0796 86.3098 80.7375 86.25H60C59.7892 86.2113 59.5732 86.2113 59.3625 86.25C59.1129 86.2292 58.862 86.2292 58.6125 86.25V86.25C58.253 86.4044 57.9231 86.6201 57.6375 86.8875C57.6375 86.8875 57.6375 86.8875 57.4125 86.8875C57.2135 87.1064 57.0376 87.3452 56.8875 87.6C56.8875 87.7875 56.6625 87.9 56.5875 88.0875C56.5125 88.275 56.5875 88.3125 56.5875 88.425C56.3622 88.9194 56.2471 89.4568 56.25 90C56.2149 90.2237 56.2149 90.4514 56.25 90.675C56.2319 90.9122 56.2319 91.1504 56.25 91.3875L63.75 110.138C64.0429 110.879 64.5643 111.507 65.2386 111.932C65.9129 112.357 66.705 112.556 67.5 112.5C67.9064 112.49 68.3098 112.427 68.7 112.313L79.95 108.563C80.8634 108.283 81.6358 107.666 82.1097 106.837C82.5836 106.008 82.7232 105.029 82.5 104.1L79.8 93.75H80.7375C83.9316 93.8091 87.0371 92.6977 89.4685 90.6255C91.9 88.5532 93.4895 85.6632 93.9375 82.5C94.1723 80.5252 93.8474 78.5242 93 76.725C91.9419 74.9938 90.4837 73.5418 88.7479 72.4912C87.0121 71.4406 85.0495 70.822 83.025 70.6875C80.6858 70.4578 78.4736 69.5154 76.6875 67.9875C74.4375 65.5125 73.875 60 75.225 54.3375C75.6052 51.9112 76.5059 49.5959 77.8652 47.5504C79.2245 45.505 81.0103 43.7779 83.1 42.4875C86.85 41.0625 92.25 43.3875 96.225 45.1125C100.2 46.8375 104.512 48.6375 106.875 45.1125C108.225 42.75 107.437 40.875 106.087 37.8ZM74.2875 102.525L69.675 104.063L65.55 93.75H72.075L74.2875 102.525Z" fill="black"/>
<path d="M48.75 86.25H37.8375C37.5754 86.2449 37.3233 86.1485 37.1247 85.9773C36.9262 85.8061 36.7936 85.571 36.75 85.3125C35.9658 82.2919 34.6995 79.4175 33 76.8C31.5095 74.4195 29.7059 72.2501 27.6375 70.35C26.1132 69.0429 24.842 67.4667 23.8875 65.7C22.617 62.7226 22.139 59.467 22.5 56.25V54.6C22.5025 47.5022 24.4109 40.5353 28.0257 34.4269C31.6406 28.3186 36.8293 23.293 43.05 19.875C43.4809 19.6288 43.8591 19.3001 44.163 18.9077C44.4668 18.5153 44.6904 18.0669 44.821 17.5881C44.9516 17.1093 44.9866 16.6095 44.924 16.1172C44.8614 15.6248 44.7025 15.1497 44.4563 14.7188C44.21 14.2879 43.8813 13.9097 43.4889 13.6058C43.0966 13.3019 42.6482 13.0783 42.1694 12.9477C41.2024 12.684 40.1702 12.8152 39.3 13.3125C31.9349 17.3915 25.7966 23.3687 21.5233 30.6229C17.2499 37.877 14.9975 46.1433 15 54.5625V56.25C14.6562 60.7587 15.4829 65.2797 17.4 69.375C18.7295 71.7716 20.4537 73.9268 22.5 75.75C24.1122 77.2075 25.5245 78.872 26.7 80.7C27.8929 82.6931 28.7779 84.855 29.325 87.1125C29.7894 89.0157 30.8825 90.7065 32.4274 91.9111C33.9723 93.1157 35.8785 93.7636 37.8375 93.75H48.75C49.7446 93.75 50.6984 93.3549 51.4016 92.6517C52.1049 91.9484 52.5 90.9946 52.5 90C52.5 89.0055 52.1049 88.0516 51.4016 87.3484C50.6984 86.6451 49.7446 86.25 48.75 86.25Z" fill="black"/>
<path d="M58.125 82.5C59.9792 82.5 61.7918 81.9502 63.3335 80.92C64.8752 79.8899 66.0768 78.4257 66.7864 76.7127C67.4959 74.9996 67.6816 73.1146 67.3199 71.296C66.9581 69.4775 66.0652 67.807 64.7541 66.4959C63.443 65.1848 61.7725 64.2919 59.954 63.9301C58.1354 63.5684 56.2504 63.7541 54.5373 64.4636C52.8243 65.1732 51.3601 66.3748 50.33 67.9165C49.2998 69.4582 48.75 71.2708 48.75 73.125C48.75 75.6114 49.7377 77.996 51.4959 79.7541C53.254 81.5123 55.6386 82.5 58.125 82.5ZM58.125 71.25C58.4958 71.25 58.8584 71.36 59.1667 71.566C59.475 71.772 59.7154 72.0649 59.8573 72.4075C59.9992 72.7501 60.0363 73.1271 59.964 73.4908C59.8916 73.8545 59.7131 74.1886 59.4508 74.4508C59.1886 74.7131 58.8545 74.8916 58.4908 74.964C58.1271 75.0363 57.7501 74.9992 57.4075 74.8573C57.0649 74.7154 56.772 74.475 56.566 74.1667C56.36 73.8584 56.25 73.4958 56.25 73.125C56.25 72.6277 56.4475 72.1508 56.7992 71.7992C57.1508 71.4475 57.6277 71.25 58.125 71.25Z" fill="black"/>
</svg>
