<svg width="30" height="30" viewBox="0 0 30 30" fill="none" xmlns="http://www.w3.org/2000/svg">
<rect width="30" height="30" fill="#FF0000" fill-opacity="0.01"/>
<path fill-rule="evenodd" clip-rule="evenodd" d="M16.3095 3.41909L25.0799 11.8394C25.5202 12.2638 25.6588 12.9131 25.4302 13.4803C25.2015 14.0475 24.6514 14.4191 24.0398 14.4195H23.2698V24.4999C23.2698 25.8807 22.1505 27 20.7697 27H9.76929C9.10622 27 8.47031 26.7366 8.00145 26.2677C7.53259 25.7989 7.26919 25.163 7.26919 24.4999V14.4195H6.49416C5.8835 14.4171 5.33526 14.0447 5.1079 13.478C4.88054 12.9112 5.01944 12.2632 5.45912 11.8394L14.2295 3.41909C14.8102 2.8603 15.7288 2.8603 16.3095 3.41909ZM13.2694 18.4997C13.2694 19.6043 14.1649 20.4997 15.2695 20.4997C16.3741 20.4997 17.2696 19.6043 17.2696 18.4997C17.2696 17.3951 16.3741 16.4996 15.2695 16.4996C14.1649 16.4996 13.2694 17.3951 13.2694 18.4997Z" fill="#D3D4ED"/>
<mask id="mask0_0_1691" style="mask-type:luminance" maskUnits="userSpaceOnUse" x="5" y="3" width="21" height="24">
<path fill-rule="evenodd" clip-rule="evenodd" d="M16.3095 3.41909L25.0799 11.8394C25.5202 12.2638 25.6588 12.9131 25.4302 13.4803C25.2015 14.0475 24.6514 14.4191 24.0398 14.4195H23.2698V24.4999C23.2698 25.8807 22.1505 27 20.7697 27H9.76929C9.10622 27 8.47031 26.7366 8.00145 26.2677C7.53259 25.7989 7.26919 25.163 7.26919 24.4999V14.4195H6.49416C5.8835 14.4171 5.33526 14.0447 5.1079 13.478C4.88054 12.9112 5.01944 12.2632 5.45912 11.8394L14.2295 3.41909C14.8102 2.8603 15.7288 2.8603 16.3095 3.41909ZM13.2694 18.4997C13.2694 19.6043 14.1649 20.4997 15.2695 20.4997C16.3741 20.4997 17.2696 19.6043 17.2696 18.4997C17.2696 17.3951 16.3741 16.4996 15.2695 16.4996C14.1649 16.4996 13.2694 17.3951 13.2694 18.4997Z" fill="white"/>
</mask>
<g mask="url(#mask0_0_1691)">
<rect width="30" height="30" fill="currentColor"/>
</g>
</svg>
