<svg width="30" height="30" viewBox="0 0 30 30" fill="none" xmlns="http://www.w3.org/2000/svg">
<rect width="30" height="30" fill="#FF0000" fill-opacity="0.01"/>
<path fill-rule="evenodd" clip-rule="evenodd" d="M4 5H26C27.105 5 28 5.895 28 7V23C28 24.105 27.105 25 26 25H24V24.5C24 23.672 23.328 23 22.5 23C21.672 23 21 23.672 21 24.5V25H9V24.5C9 23.672 8.328 23 7.5 23C6.672 23 6 23.672 6 24.5V25H4C2.895 25 2 24.105 2 23V7C2 5.89543 2.89543 5 4 5ZM7.69358 17.1427C7.0527 17.4304 6.31589 17.7611 6 19H14.001C13.6851 17.7611 12.9483 17.4304 12.3074 17.1427C11.8325 16.9296 11.4102 16.74 11.251 16.222V15.319C11.439 15.219 11.975 14.527 12.031 13.987C12.178 13.975 12.41 13.828 12.478 13.249C12.514 12.938 12.368 12.763 12.28 12.708C12.28 12.708 12.5 12.255 12.5 11.708C12.5 10.612 12.103 9.677 11.25 9.677C11.25 9.677 10.954 9 10 9C8.233 9 7.5 10.228 7.501 11.708C7.501 12.207 7.721 12.708 7.721 12.708C7.632 12.763 7.486 12.938 7.523 13.249C7.591 13.828 7.823 13.975 7.97 13.987C8.026 14.527 8.562 15.219 8.75 15.319V16.222C8.59081 16.74 8.16854 16.9296 7.69358 17.1427ZM23 18H17C16.448 18 16 17.552 16 17C16 16.448 16.448 16 17 16H23C23.552 16 24 16.448 24 17C24 17.552 23.552 18 23 18ZM17 14H23C23.552 14 24 13.552 24 13C24 12.448 23.552 12 23 12H17C16.448 12 16 12.448 16 13C16 13.552 16.448 14 17 14Z" fill="black"/>
<mask id="mask0_0_2236" style="mask-type:luminance" maskUnits="userSpaceOnUse" x="2" y="5" width="26" height="20">
<path fill-rule="evenodd" clip-rule="evenodd" d="M4 5H26C27.105 5 28 5.895 28 7V23C28 24.105 27.105 25 26 25H24V24.5C24 23.672 23.328 23 22.5 23C21.672 23 21 23.672 21 24.5V25H9V24.5C9 23.672 8.328 23 7.5 23C6.672 23 6 23.672 6 24.5V25H4C2.895 25 2 24.105 2 23V7C2 5.89543 2.89543 5 4 5ZM7.69358 17.1427C7.0527 17.4304 6.31589 17.7611 6 19H14.001C13.6851 17.7611 12.9483 17.4304 12.3074 17.1427C11.8325 16.9296 11.4102 16.74 11.251 16.222V15.319C11.439 15.219 11.975 14.527 12.031 13.987C12.178 13.975 12.41 13.828 12.478 13.249C12.514 12.938 12.368 12.763 12.28 12.708C12.28 12.708 12.5 12.255 12.5 11.708C12.5 10.612 12.103 9.677 11.25 9.677C11.25 9.677 10.954 9 10 9C8.233 9 7.5 10.228 7.501 11.708C7.501 12.207 7.721 12.708 7.721 12.708C7.632 12.763 7.486 12.938 7.523 13.249C7.591 13.828 7.823 13.975 7.97 13.987C8.026 14.527 8.562 15.219 8.75 15.319V16.222C8.59081 16.74 8.16854 16.9296 7.69358 17.1427ZM23 18H17C16.448 18 16 17.552 16 17C16 16.448 16.448 16 17 16H23C23.552 16 24 16.448 24 17C24 17.552 23.552 18 23 18ZM17 14H23C23.552 14 24 13.552 24 13C24 12.448 23.552 12 23 12H17C16.448 12 16 12.448 16 13C16 13.552 16.448 14 17 14Z" fill="white"/>
</mask>
<g mask="url(#mask0_0_2236)">
<rect width="30" height="30" fill="currentColor"/>
</g>
</svg>
