<svg width="30" height="30" viewBox="0 0 30 30" fill="none" xmlns="http://www.w3.org/2000/svg">
<rect width="30" height="30" fill="#FF0000" fill-opacity="0.01"/>
<mask id="mask0_0_1995" style="mask-type:luminance" maskUnits="userSpaceOnUse" x="3" y="4" width="24" height="22">
<path d="M27 11.4401H26.988C26.9253 7.50625 23.9387 4 20.2507 4C18.1173 4 16.2373 5.19213 15 6.9425C13.7627 5.19213 11.8827 4 9.74933 4C6.06133 4 3.07467 7.50625 3.012 11.4401H3C3 11.4649 3.004 11.4869 3.004 11.5103C3.004 11.5281 3 11.546 3 11.5652C3 11.6753 3.02533 11.7591 3.03067 11.865C3.36 21.8901 14.9053 26 14.9053 26C14.9053 26 26.62 21.8942 26.9667 11.8801C26.9733 11.7688 27 11.6807 27 11.5652C27 11.546 26.996 11.5281 26.996 11.5103C26.996 11.4841 27 11.4635 27 11.4401Z" fill="white"/>
</mask>
<g mask="url(#mask0_0_1995)">
<rect width="30" height="30" fill="currentColor"/>
</g>
</svg>
