<svg width="16" height="17" viewBox="0 0 16 17" xmlns="http://www.w3.org/2000/svg">
<path d="M13.0889 0C14.3645 0 15.3983 1.14156 15.3984 2.5498V11.0498C15.3984 12.4582 14.3645 13.6006 13.0889 13.6006H4.16895L1.31445 16.751C0.850555 17.2631 0.0718859 16.9389 0.00488281 16.2471L0 16.1504V2.5498C0.000117748 1.14166 1.03408 0.000151135 2.30957 0H13.0889ZM2.31055 1.7002C1.88539 1.7002 1.54015 2.08046 1.54004 2.5498V14.0967L3.30566 12.1494C3.42599 12.0166 3.58218 11.9316 3.74902 11.9072L3.84961 11.9004H13.0889C13.5141 11.9004 13.8594 11.5193 13.8594 11.0498V2.5498C13.8593 2.08046 13.514 1.7002 13.0889 1.7002H2.31055Z"/>
</svg>
