<svg width="30" height="30" viewBox="0 0 30 30" fill="none" xmlns="http://www.w3.org/2000/svg">
<rect width="30" height="30" fill="#FF0000" fill-opacity="0.01"/>
<path fill-rule="evenodd" clip-rule="evenodd" d="M22.8571 2H7.14287C5.40721 2 4 3.39921 4 5.12502V27H5.46692L8.71428 24.6563L11.8571 27L15 24.6563L18.1428 27L21.2857 24.6563L24.533 27H26V5.12502C26 3.39921 24.5927 2 22.8571 2ZM9.75 7H20.25C20.664 7 21 7.448 21 8C21 8.552 20.664 9 20.25 9H9.75C9.336 9 9 8.552 9 8C9 7.448 9.336 7 9.75 7ZM20.25 12H9.75C9.336 12 9 12.448 9 13C9 13.552 9.336 14 9.75 14H20.25C20.664 14 21 13.552 21 13C21 12.448 20.664 12 20.25 12ZM20.25 17H9.75C9.336 17 9 17.448 9 18C9 18.552 9.336 19 9.75 19H20.25C20.664 19 21 18.552 21 18C21 17.448 20.664 17 20.25 17ZM21 22.6249L24 24.88V5.48998C24 4.66677 23.3287 4 22.4999 4H7.49999C6.672 4 6 4.66677 6 5.48998V24.9031L9.00001 22.6249L12 25L15 22.6249L18 25L21 22.6249Z" fill="black"/>
<mask id="mask0_7_2467" style="mask-type:luminance" maskUnits="userSpaceOnUse" x="4" y="2" width="22" height="25">
<path fill-rule="evenodd" clip-rule="evenodd" d="M22.8571 2H7.14287C5.40721 2 4 3.39921 4 5.12502V27H5.46692L8.71428 24.6563L11.8571 27L15 24.6563L18.1428 27L21.2857 24.6563L24.533 27H26V5.12502C26 3.39921 24.5927 2 22.8571 2ZM9.75 7H20.25C20.664 7 21 7.448 21 8C21 8.552 20.664 9 20.25 9H9.75C9.336 9 9 8.552 9 8C9 7.448 9.336 7 9.75 7ZM20.25 12H9.75C9.336 12 9 12.448 9 13C9 13.552 9.336 14 9.75 14H20.25C20.664 14 21 13.552 21 13C21 12.448 20.664 12 20.25 12ZM20.25 17H9.75C9.336 17 9 17.448 9 18C9 18.552 9.336 19 9.75 19H20.25C20.664 19 21 18.552 21 18C21 17.448 20.664 17 20.25 17ZM21 22.6249L24 24.88V5.48998C24 4.66677 23.3287 4 22.4999 4H7.49999C6.672 4 6 4.66677 6 5.48998V24.9031L9.00001 22.6249L12 25L15 22.6249L18 25L21 22.6249Z" fill="white"/>
</mask>
<g mask="url(#mask0_7_2467)">
<rect width="30" height="30" fill="currentColor"/>
</g>
</svg>
