<svg width="16" height="17" viewBox="0 0 16 17" xmlns="http://www.w3.org/2000/svg">
<path d="M4.21266 0.000110848C5.27188 -0.0112036 6.17485 0.844861 6.32398 2.00792C6.40612 2.69416 6.55815 3.368 6.77711 4.01476C7.06702 4.86473 6.88168 5.82305 6.29957 6.47179L5.79566 7.02648L5.84937 7.12023C6.65219 8.4797 7.70466 9.63884 8.93824 10.5235L9.02223 10.5812L9.52808 10.0245C10.0795 9.42361 10.8828 9.20688 11.617 9.44933L11.7537 9.50011C12.3422 9.7421 12.9538 9.9106 13.5828 10.0021C14.6436 10.1672 15.4244 11.1817 15.3982 12.3429V14.6661C15.4005 15.3209 15.1514 15.9461 14.7136 16.3888C14.2758 16.8315 13.6892 17.0507 13.0847 16.9903C10.8108 16.718 8.62634 15.8619 6.71266 14.4943C4.92579 13.2429 3.41022 11.573 2.27808 9.60949C1.02911 7.48469 0.252213 5.0649 0.00855367 2.53527C-0.0446704 1.88514 0.152194 1.24004 0.551522 0.757923C0.950877 0.275847 1.51603 0.000840407 2.10914 0.000110848H4.21266ZM2.11012 1.55089C1.91257 1.55114 1.72372 1.64308 1.59058 1.80382C1.45759 1.96452 1.39227 2.17935 1.40894 2.3839C1.62818 4.6592 2.33054 6.84551 3.46266 8.7716C4.48731 10.5487 5.85445 12.0554 7.47242 13.1886C9.20705 14.4283 11.1817 15.2026 13.2244 15.4474C13.4215 15.4669 13.6166 15.3937 13.7625 15.2462C13.9084 15.0986 13.9918 14.8905 13.991 14.6691V12.3243C13.9998 11.9308 13.7397 11.5923 13.3923 11.5382C12.6644 11.4324 11.9491 11.2358 11.2595 10.9523C11.0025 10.846 10.7127 10.9145 10.5203 11.1241L9.62672 12.1085C9.40283 12.3549 9.05712 12.4068 8.78199 12.2345C6.91072 11.0618 5.36165 9.35343 4.29762 7.29113C4.1412 6.98776 4.18799 6.6072 4.41187 6.36046L5.3025 5.37804C5.49527 5.16283 5.55688 4.84356 5.45973 4.5587C5.20305 3.8006 5.02458 3.01298 4.92945 2.21788C4.88003 1.83256 4.57946 1.54712 4.22633 1.55089H2.11012Z"/>
</svg>
