<svg width="30" height="30" viewBox="0 0 30 30" fill="none" xmlns="http://www.w3.org/2000/svg">
<rect width="30" height="30" fill="#FF0000" fill-opacity="0.01"/>
<path fill-rule="evenodd" clip-rule="evenodd" d="M2 15.0003C2 7.83294 7.83131 2 15 2C22.1687 2 28.0003 7.83294 28 15.0003C28 22.169 22.1687 28.0003 15 28.0003C7.83131 28.0003 2 22.169 2 15.0003ZM23.7912 21.7456C25.2272 19.8753 26.0876 17.5361 26.0876 15.0003C26.0876 10.1182 22.9135 5.96663 18.5208 4.49085C18.25 4.821 18.0469 5.13842 18.0669 5.34885C18.2725 7.40945 19.3098 6.96721 20.0563 6.64892C20.3854 6.50858 20.658 6.39234 20.778 6.52535C21.4164 7.23324 20.9256 7.73002 20.336 8.32688C19.6332 9.03825 18.79 9.89181 19.5508 11.4144C20.2255 12.7602 21.0038 13.1353 22.1381 13.1521C23.2748 13.1705 23.6924 15.1102 23.7826 15.9143C23.8757 16.7192 23.7688 18.7876 23.3595 19.6816C22.9533 20.5702 23.385 21.4266 23.7912 21.7456ZM13.4766 4.02285C13.3112 4.34479 12.9769 4.54769 12.6453 4.74895C12.4451 4.87041 12.246 4.99127 12.0856 5.13733C11.6946 5.49147 11.3978 5.67524 11.1477 5.83009C10.806 6.04164 10.5515 6.19921 10.2631 6.66348C10.0507 7.00366 9.63827 7.40744 9.23309 7.80413C8.68052 8.34511 8.14142 8.8729 8.14142 9.20823C8.14142 9.78917 8.9596 10.4763 9.36856 10.3425C9.77779 10.2081 10.8554 10.2155 11.4903 10.4384C11.5762 10.4687 11.7361 10.4991 11.9446 10.5387C13.2759 10.7915 16.5897 11.421 15.3044 14.8313C15.1027 15.3681 14.6087 15.6363 14.0665 15.9307C13.3425 16.3236 12.5327 16.7632 12.218 17.9513C12.1359 18.2549 11.8513 19.5568 11.8313 19.9825C11.8216 20.1691 11.855 20.5024 11.8931 20.8842C11.9895 21.8483 12.1167 23.1215 11.662 23.1215C11.0244 23.1215 9.30898 20.9025 9.30898 20.5004C9.30898 20.3532 9.24927 20.0709 9.17356 19.713C9.04239 19.093 8.86319 18.2459 8.86319 17.4806C8.86319 16.9196 8.42002 16.6234 7.94542 16.3062C7.39833 15.9406 6.80946 15.547 6.80946 14.6877C6.80946 13.9208 7.12162 13.3583 7.3783 12.8957C7.60655 12.4844 7.79092 12.1522 7.67287 11.8256C7.46499 11.2409 6.02774 11.1333 5.09767 11.0637H5.09766C4.92994 11.0511 4.77871 11.0398 4.65417 11.0271C6.07929 7.32783 9.43383 4.58131 13.4766 4.02285ZM12.1156 25.0676C11.9639 25.2111 11.7903 25.3753 11.513 25.5216C12.6104 25.887 13.7812 26.0874 15.0003 26.0876C17.2571 26.0876 19.3591 25.4076 21.1138 24.2427C20.6255 23.3568 18.8144 23.2341 17.8976 23.3086C17.2174 23.3651 16.4802 23.6595 15.8541 23.9096C15.4776 24.0599 15.1412 24.1943 14.8816 24.2511C14.613 24.3099 14.3702 24.3768 14.1391 24.4405C13.7002 24.5614 13.3031 24.6708 12.8504 24.6912C12.498 24.7059 12.3282 24.8666 12.1156 25.0676Z" fill="#030104"/>
<mask id="mask0_0_2065" style="mask-type:luminance" maskUnits="userSpaceOnUse" x="2" y="2" width="26" height="27">
<path fill-rule="evenodd" clip-rule="evenodd" d="M2 15.0003C2 7.83294 7.83131 2 15 2C22.1687 2 28.0003 7.83294 28 15.0003C28 22.169 22.1687 28.0003 15 28.0003C7.83131 28.0003 2 22.169 2 15.0003ZM23.7912 21.7456C25.2272 19.8753 26.0876 17.5361 26.0876 15.0003C26.0876 10.1182 22.9135 5.96663 18.5208 4.49085C18.25 4.821 18.0469 5.13842 18.0669 5.34885C18.2725 7.40945 19.3098 6.96721 20.0563 6.64892C20.3854 6.50858 20.658 6.39234 20.778 6.52535C21.4164 7.23324 20.9256 7.73002 20.336 8.32688C19.6332 9.03825 18.79 9.89181 19.5508 11.4144C20.2255 12.7602 21.0038 13.1353 22.1381 13.1521C23.2748 13.1705 23.6924 15.1102 23.7826 15.9143C23.8757 16.7192 23.7688 18.7876 23.3595 19.6816C22.9533 20.5702 23.385 21.4266 23.7912 21.7456ZM13.4766 4.02285C13.3112 4.34479 12.9769 4.54769 12.6453 4.74895C12.4451 4.87041 12.246 4.99127 12.0856 5.13733C11.6946 5.49147 11.3978 5.67524 11.1477 5.83009C10.806 6.04164 10.5515 6.19921 10.2631 6.66348C10.0507 7.00366 9.63827 7.40744 9.23309 7.80413C8.68052 8.34511 8.14142 8.8729 8.14142 9.20823C8.14142 9.78917 8.9596 10.4763 9.36856 10.3425C9.77779 10.2081 10.8554 10.2155 11.4903 10.4384C11.5762 10.4687 11.7361 10.4991 11.9446 10.5387C13.2759 10.7915 16.5897 11.421 15.3044 14.8313C15.1027 15.3681 14.6087 15.6363 14.0665 15.9307C13.3425 16.3236 12.5327 16.7632 12.218 17.9513C12.1359 18.2549 11.8513 19.5568 11.8313 19.9825C11.8216 20.1691 11.855 20.5024 11.8931 20.8842C11.9895 21.8483 12.1167 23.1215 11.662 23.1215C11.0244 23.1215 9.30898 20.9025 9.30898 20.5004C9.30898 20.3532 9.24927 20.0709 9.17356 19.713C9.04239 19.093 8.86319 18.2459 8.86319 17.4806C8.86319 16.9196 8.42002 16.6234 7.94542 16.3062C7.39833 15.9406 6.80946 15.547 6.80946 14.6877C6.80946 13.9208 7.12162 13.3583 7.3783 12.8957C7.60655 12.4844 7.79092 12.1522 7.67287 11.8256C7.46499 11.2409 6.02774 11.1333 5.09767 11.0637H5.09766C4.92994 11.0511 4.77871 11.0398 4.65417 11.0271C6.07929 7.32783 9.43383 4.58131 13.4766 4.02285ZM12.1156 25.0676C11.9639 25.2111 11.7903 25.3753 11.513 25.5216C12.6104 25.887 13.7812 26.0874 15.0003 26.0876C17.2571 26.0876 19.3591 25.4076 21.1138 24.2427C20.6255 23.3568 18.8144 23.2341 17.8976 23.3086C17.2174 23.3651 16.4802 23.6595 15.8541 23.9096C15.4776 24.0599 15.1412 24.1943 14.8816 24.2511C14.613 24.3099 14.3702 24.3768 14.1391 24.4405C13.7002 24.5614 13.3031 24.6708 12.8504 24.6912C12.498 24.7059 12.3282 24.8666 12.1156 25.0676Z" fill="white"/>
</mask>
<g mask="url(#mask0_0_2065)">
<rect width="30" height="30" fill="currentColor"/>
</g>
</svg>
