<svg width="22" height="22" viewBox="0 0 22 22" fill="none" xmlns="http://www.w3.org/2000/svg">
<path d="M12 2.05957C16.17 2.51957 19.4804 5.83 19.9404 10H22V12H19.9404C19.4804 16.17 16.17 19.4804 12 19.9404V22H10V19.9404C5.83 19.4804 2.51957 16.17 2.05957 12H0V10H2.05957C2.51957 5.83 5.83 2.51957 10 2.05957V0H12V2.05957ZM11 4C7.13 4 4 7.13 4 11C4 14.87 7.13 18 11 18C14.87 18 18 14.87 18 11C18 7.13 14.87 4 11 4ZM11 7C13.21 7 15 8.79 15 11C15 13.21 13.21 15 11 15C8.79 15 7 13.21 7 11C7 8.79 8.79 7 11 7Z" fill="black"/>
</svg>
