<svg width="30" height="30" viewBox="0 0 30 30" fill="none" xmlns="http://www.w3.org/2000/svg">
<rect width="30" height="30" fill="#FF0000" fill-opacity="0.01"/>
<path fill-rule="evenodd" clip-rule="evenodd" d="M15 27C8.373 27 3 21.627 3 15C3 8.373 8.373 3 15 3C21.627 3 27 8.373 27 15C27 21.627 21.627 27 15 27ZM13.5 16.5C13.5 17.328 14.172 18 15 18C15.828 18 16.5 17.328 16.5 16.5V9C16.5 8.172 15.828 7.5 15 7.5C14.172 7.5 13.5 8.172 13.5 9V16.5ZM13.5 20.976C13.5 20.148 14.172 19.476 15 19.476C15.828 19.476 16.5 20.148 16.5 20.976C16.5 21.804 15.828 22.476 15 22.476C14.172 22.476 13.5 21.804 13.5 20.976Z" fill="black"/>
<mask id="mask0_0_2262" style="mask-type:luminance" maskUnits="userSpaceOnUse" x="3" y="3" width="24" height="24">
<path fill-rule="evenodd" clip-rule="evenodd" d="M15 27C8.373 27 3 21.627 3 15C3 8.373 8.373 3 15 3C21.627 3 27 8.373 27 15C27 21.627 21.627 27 15 27ZM13.5 16.5C13.5 17.328 14.172 18 15 18C15.828 18 16.5 17.328 16.5 16.5V9C16.5 8.172 15.828 7.5 15 7.5C14.172 7.5 13.5 8.172 13.5 9V16.5ZM13.5 20.976C13.5 20.148 14.172 19.476 15 19.476C15.828 19.476 16.5 20.148 16.5 20.976C16.5 21.804 15.828 22.476 15 22.476C14.172 22.476 13.5 21.804 13.5 20.976Z" fill="white"/>
</mask>
<g mask="url(#mask0_0_2262)">
<rect width="30" height="30" fill="currentColor"/>
</g>
</svg>
