<svg width="16" height="16" viewBox="0 0 16 16" fill="none" xmlns="http://www.w3.org/2000/svg">
<path d="M13.5 9.4L12.9 6.4C12.8869 6.33435 12.8609 6.2719 12.8237 6.21627C12.7864 6.16062 12.7386 6.11287 12.6829 6.07572C12.6271 6.0386 12.5647 6.01277 12.499 5.9998C12.4333 5.9868 12.3657 5.98687 12.3 6C12.2343 6.01312 12.1719 6.03907 12.1163 6.07632C12.0606 6.1136 12.0129 6.16145 11.9757 6.21715C11.9386 6.27287 11.9128 6.33535 11.8998 6.40105C11.8868 6.46672 11.8869 6.53435 11.9 6.6L12.4 9.035C12.2674 9.0159 12.1339 9.00422 12 9C11.2916 9.00072 10.6062 9.25212 10.0654 9.7097C9.52455 10.1672 9.16307 10.8015 9.045 11.5H2.57C2.72493 11.0495 3.02035 10.6607 3.41278 10.3907C3.8052 10.1207 4.27393 9.98372 4.75 10C5.1089 9.9984 5.46385 10.0752 5.79 10.225C5.85005 10.258 5.91623 10.2782 5.98445 10.2846C6.05268 10.2909 6.12145 10.2832 6.18655 10.2618C6.25165 10.2404 6.31168 10.2059 6.36288 10.1604C6.41408 10.1149 6.45537 10.0594 6.48422 9.99722C6.51305 9.93507 6.52883 9.86767 6.53053 9.79917C6.53223 9.7307 6.51985 9.66257 6.49413 9.59907C6.4684 9.53557 6.42993 9.47805 6.38105 9.43002C6.33218 9.38202 6.27395 9.34457 6.21 9.32C5.75325 9.10587 5.25443 8.99655 4.75 9C4.21158 8.994 3.6798 9.11927 3.20065 9.36495C2.7215 9.6106 2.3094 9.9693 2 10.41V8H6.23L7 9.14C7.07335 9.25057 7.1729 9.3413 7.2898 9.40412C7.4067 9.46692 7.5373 9.49987 7.67 9.5H9.67C9.77822 9.50337 9.886 9.48487 9.9869 9.4456C10.0878 9.40635 10.1798 9.34712 10.2573 9.2715C10.3348 9.19587 10.3962 9.1054 10.4379 9.0055C10.4796 8.90557 10.5007 8.79827 10.5 8.69V5H13.5C13.8978 5 14.2794 4.84197 14.5607 4.56065C14.842 4.27935 15 3.89782 15 3.5C15 3.10217 14.842 2.72065 14.5607 2.43934C14.2794 2.15804 13.8978 2 13.5 2H9C8.8674 2 8.74023 2.05268 8.64645 2.14645C8.55268 2.24022 8.5 2.36739 8.5 2.5V3H8C7.8674 3 7.74023 3.05267 7.64645 3.14645C7.55268 3.24022 7.5 3.3674 7.5 3.5C7.5 3.6326 7.55268 3.75977 7.64645 3.85355C7.74023 3.94732 7.8674 4 8 4H8.5V4.5C8.5 4.6326 8.55268 4.75977 8.64645 4.85355C8.74023 4.94732 8.8674 5 9 5H9.5V8.5H7.77L7.165 7.595C7.33098 7.41737 7.44132 7.19505 7.4824 6.95545C7.5235 6.71585 7.49355 6.46945 7.39625 6.24667C7.29895 6.0239 7.13857 5.83447 6.93487 5.7018C6.73117 5.5691 6.4931 5.49895 6.25 5.5H2C1.86739 5.5 1.74022 5.55267 1.64645 5.64645C1.55268 5.74022 1.5 5.8674 1.5 6V7.105C1.35072 7.1816 1.22523 7.29755 1.1371 7.4403C1.04897 7.58307 1.00156 7.74722 1 7.915V11.585C1 11.8277 1.0964 12.0604 1.268 12.232C1.43959 12.4036 1.67233 12.5 1.915 12.5H3.025C3.0522 13.0751 3.2998 13.6177 3.71645 14.0151C4.13308 14.4125 4.68673 14.6342 5.2625 14.6342C5.83828 14.6342 6.39193 14.4125 6.80855 14.0151C7.2252 13.6177 7.4728 13.0751 7.5 12.5H10.05C10.1193 13.0451 10.3866 13.5457 10.8009 13.9066C11.2153 14.2675 11.7478 14.4635 12.2973 14.4573C12.8467 14.4511 13.3747 14.2432 13.7809 13.8731C14.187 13.503 14.443 12.9965 14.5 12.45C14.6238 12.4104 14.7344 12.3378 14.82 12.24C14.8884 12.1669 14.9403 12.0799 14.9722 11.9851C15.0041 11.8902 15.0153 11.7896 15.005 11.69C14.9565 11.2155 14.7944 10.7596 14.5324 10.361C14.2704 9.96245 13.9163 9.6328 13.5 9.4ZM14 3.5C14 3.6326 13.9473 3.75977 13.8536 3.85355C13.7598 3.94732 13.6326 4 13.5 4H13V3H13.5C13.6326 3 13.7598 3.05267 13.8536 3.14645C13.9473 3.24022 14 3.3674 14 3.5ZM9.5 3H12V4H9.5C9.6326 4 9.75978 3.94732 9.85355 3.85355C9.94733 3.75977 10 3.6326 10 3.5C10 3.3674 9.94733 3.24022 9.85355 3.14645C9.75978 3.05267 9.6326 3 9.5 3ZM2.5 6.5H6.25C6.3163 6.5 6.3799 6.52635 6.42678 6.57322C6.47365 6.6201 6.5 6.6837 6.5 6.75C6.5 6.8163 6.47365 6.8799 6.42678 6.92678C6.3799 6.97365 6.3163 7 6.25 7H2.5V6.5ZM12 10C12.444 9.99922 12.8756 10.1462 13.2269 10.4178C13.5781 10.6894 13.829 11.0701 13.94 11.5H10.065C10.1758 11.0709 10.4259 10.6908 10.7761 10.4193C11.1264 10.1478 11.5569 10.0003 12 10ZM5.25 13.5C4.96183 13.5 4.6825 13.4005 4.45928 13.2183C4.23605 13.0361 4.08263 12.7823 4.025 12.5H6.5C6.44155 12.7866 6.28447 13.0436 6.05607 13.2263C5.82767 13.409 5.54243 13.5059 5.25 13.5ZM12.25 13.5C11.9618 13.5 11.6825 13.4005 11.4593 13.2183C11.2361 13.0361 11.0826 12.7823 11.025 12.5H13.5C13.4416 12.7866 13.2845 13.0436 13.0561 13.2263C12.8277 13.409 12.5424 13.5059 12.25 13.5Z" fill="currentColor"/>
</svg>
