<svg width="30" height="30" viewBox="0 0 30 30" fill="none" xmlns="http://www.w3.org/2000/svg">
<rect width="30" height="30" fill="#FF0000" fill-opacity="0.01"/>
<path d="M15 4C23.2833 4 30 10.5829 30 18.7002C30 20.9568 29.4786 23.0907 28.5537 25H26.1367C27.1667 23.2538 27.7568 21.2858 27.8418 19.2246H25.7119V18.1748H27.8555C27.7754 16.2849 27.2712 14.4677 26.3945 12.833L24.5537 13.876L24.0186 12.9639L25.8535 11.9268C25.3502 11.1595 24.7685 10.4439 24.0986 9.78809C23.4153 9.12416 22.6718 8.54054 21.8818 8.04785L20.8232 9.83984L19.8936 9.31445L20.9453 7.52344C19.2854 6.677 17.4501 6.19246 15.5352 6.11328V8.2002H14.4629V6.11426C12.5482 6.19184 10.7135 6.6717 9.05371 7.52441L10.1113 9.31445L9.18164 9.83984L8.12305 8.04785C7.33307 8.54053 6.58956 9.1258 5.90625 9.78809C5.23637 10.4439 4.64629 11.166 4.15137 11.9268L5.99316 12.9639L5.45801 13.876L3.61621 12.833C2.73966 14.4677 2.23627 16.285 2.15625 18.1748H4.28711V19.2246H2.15625C2.24292 21.2858 2.83329 23.2538 3.86328 25H1.44629C0.521361 23.0907 3.01057e-05 20.9584 0 18.7002C0 10.5829 6.71667 4 15 4ZM21 15.5625L16.9883 21.4971C16.9945 21.5819 17.001 21.6652 17.001 21.75C17.001 22.9944 16.106 24 15 24C13.8942 23.9998 13 22.9943 13 21.75C13 20.5057 13.8942 19.5002 15 19.5C15.0745 19.5 15.1495 19.5068 15.2256 19.5137L20.501 15L21 15.5625Z" fill="black"/>
<mask id="mask0_7_2466" style="mask-type:luminance" maskUnits="userSpaceOnUse" x="0" y="4" width="30" height="21">
<path d="M15 4C23.2833 4 30 10.5829 30 18.7002C30 20.9568 29.4786 23.0907 28.5537 25H26.1367C27.1667 23.2538 27.7568 21.2858 27.8418 19.2246H25.7119V18.1748H27.8555C27.7754 16.2849 27.2712 14.4677 26.3945 12.833L24.5537 13.876L24.0186 12.9639L25.8535 11.9268C25.3502 11.1595 24.7685 10.4439 24.0986 9.78809C23.4153 9.12416 22.6718 8.54054 21.8818 8.04785L20.8232 9.83984L19.8936 9.31445L20.9453 7.52344C19.2854 6.677 17.4501 6.19246 15.5352 6.11328V8.2002H14.4629V6.11426C12.5482 6.19184 10.7135 6.6717 9.05371 7.52441L10.1113 9.31445L9.18164 9.83984L8.12305 8.04785C7.33307 8.54053 6.58956 9.1258 5.90625 9.78809C5.23637 10.4439 4.64629 11.166 4.15137 11.9268L5.99316 12.9639L5.45801 13.876L3.61621 12.833C2.73966 14.4677 2.23627 16.285 2.15625 18.1748H4.28711V19.2246H2.15625C2.24292 21.2858 2.83329 23.2538 3.86328 25H1.44629C0.521361 23.0907 3.01057e-05 20.9584 0 18.7002C0 10.5829 6.71667 4 15 4ZM21 15.5625L16.9883 21.4971C16.9945 21.5819 17.001 21.6652 17.001 21.75C17.001 22.9944 16.106 24 15 24C13.8942 23.9998 13 22.9943 13 21.75C13 20.5057 13.8942 19.5002 15 19.5C15.0745 19.5 15.1495 19.5068 15.2256 19.5137L20.501 15L21 15.5625Z" fill="white"/>
</mask>
<g mask="url(#mask0_7_2466)">
<rect width="30" height="30" fill="currentColor"/>
</g>
</svg>
