<svg width="16" height="18" viewBox="0 0 16 18" fill="none" xmlns="http://www.w3.org/2000/svg">
<path d="M11.5996 10.9092C13.8901 10.9092 15.7863 12.686 15.9834 14.9902L15.9961 15.1729L16 15.3633V17.1816C16 17.6012 15.6908 17.9469 15.293 17.9941L15.2002 18H0.799805C0.389678 17.9999 0.0521348 17.6841 0.00585938 17.2773L0 17.1816V15.3633C0.000179355 13.0401 1.76014 11.1244 4.03223 10.9258L4.21191 10.9131L4.40039 10.9092H11.5996ZM4.26758 12.5488C2.82776 12.6162 1.6818 13.7749 1.60449 15.209L1.59961 15.3633V16.3633H14.4004V15.3828L14.3965 15.2305C14.33 13.7852 13.1825 12.6279 11.7539 12.5498L11.5996 12.5459L4.41797 12.5449L4.26758 12.5488ZM8 0C10.4277 0 12.4002 1.99184 12.4004 4.4541C12.4004 6.91657 10.4278 8.90918 8 8.90918C5.57216 8.90918 3.59961 6.91657 3.59961 4.4541C3.59985 1.99184 5.5723 0 8 0ZM8 1.63672C6.45154 1.63672 5.20043 2.90016 5.2002 4.4541C5.2002 6.00825 6.45139 7.27246 8 7.27246C9.54861 7.27246 10.7998 6.00825 10.7998 4.4541C10.7996 2.90016 9.54846 1.63672 8 1.63672Z" fill="white"/>
</svg>
