<svg width="120" height="120" viewBox="0 0 120 120" fill="none" xmlns="http://www.w3.org/2000/svg">
<path d="M101.25 70.5L96.75 48C96.6515 47.5075 96.457 47.0393 96.1775 46.622C95.8981 46.2047 95.5392 45.8466 95.1213 45.568C94.7035 45.2894 94.2348 45.0959 93.7422 44.9984C93.2495 44.901 92.7425 44.9015 92.25 45C91.7576 45.0985 91.2893 45.293 90.872 45.5725C90.4548 45.8519 90.0966 46.2108 89.818 46.6287C89.5395 47.0465 89.3459 47.5152 89.2484 48.0078C89.151 48.5005 89.1515 49.0075 89.25 49.5L93 67.7625C92.0057 67.6193 91.0041 67.5316 90 67.5C84.6867 67.5054 79.5468 69.3909 75.4904 72.8227C71.4341 76.2545 68.7231 81.011 67.8375 86.25H19.275C20.437 82.8716 22.6526 79.9554 25.5958 77.9302C28.539 75.9051 32.0545 74.878 35.625 75C38.3169 74.9879 40.9789 75.5639 43.425 76.6875C43.8754 76.9348 44.3718 77.087 44.8834 77.1345C45.395 77.182 45.911 77.1238 46.3992 76.9636C46.8874 76.8034 47.3375 76.5446 47.7215 76.2032C48.1055 75.8619 48.4153 75.4452 48.6316 74.9791C48.8479 74.5131 48.9661 74.0075 48.9789 73.4938C48.9917 72.9802 48.8988 72.4694 48.7059 71.9931C48.5131 71.5168 48.2244 71.0853 47.8579 70.7252C47.4913 70.3652 47.0546 70.0843 46.575 69.9C43.1494 68.2941 39.4082 67.4741 35.625 67.5C31.5868 67.4551 27.5984 68.3945 24.0048 70.237C20.4112 72.0796 17.3205 74.7698 15 78.075V60H46.725L52.5 68.55C53.0502 69.3794 53.7968 70.0598 54.6735 70.5309C55.5502 71.002 56.5298 71.249 57.525 71.25H72.525C73.3367 71.2752 74.1451 71.1365 74.9019 70.842C75.6586 70.5476 76.3483 70.1035 76.9294 69.5363C77.5106 68.9691 77.9714 68.2906 78.2842 67.5412C78.597 66.7918 78.7554 65.987 78.75 65.175V37.5H101.25C104.234 37.5 107.095 36.3147 109.205 34.205C111.315 32.0952 112.5 29.2337 112.5 26.25C112.5 23.2663 111.315 20.4048 109.205 18.295C107.095 16.1853 104.234 15 101.25 15H67.5C66.5054 15 65.5516 15.3951 64.8484 16.0984C64.1451 16.8016 63.75 17.7554 63.75 18.75V22.5H60C59.0054 22.5 58.0516 22.8951 57.3484 23.5984C56.6451 24.3016 56.25 25.2554 56.25 26.25C56.25 27.2446 56.6451 28.1984 57.3484 28.9016C58.0516 29.6049 59.0054 30 60 30H63.75V33.75C63.75 34.7446 64.1451 35.6984 64.8484 36.4016C65.5516 37.1049 66.5054 37.5 67.5 37.5H71.25V63.75H58.275L53.7375 56.9625C54.9823 55.6303 55.8099 53.9629 56.1181 52.1659C56.4263 50.3689 56.2017 48.521 55.4719 46.8501C54.7422 45.1793 53.5392 43.7587 52.0115 42.7635C50.4838 41.7683 48.6982 41.2422 46.875 41.25H15C14.0054 41.25 13.0516 41.6451 12.3484 42.3484C11.6451 43.0516 11.25 44.0054 11.25 45V53.2875C10.1304 53.8619 9.18921 54.7315 8.52824 55.8023C7.86727 56.8731 7.5117 58.1042 7.5 59.3625V86.8875C7.5 88.7075 8.22301 90.453 9.50998 91.74C10.7969 93.027 12.5425 93.75 14.3625 93.75H22.6875C22.8915 98.0634 24.7485 102.133 27.8733 105.113C30.9981 108.094 35.1505 109.756 39.4688 109.756C43.787 109.756 47.9395 108.094 51.0642 105.113C54.189 102.133 56.046 98.0634 56.25 93.75H75.375C75.8949 97.8382 77.8993 101.593 81.0069 104.299C84.1146 107.006 88.1087 108.476 92.2296 108.43C96.3504 108.383 100.31 106.824 103.357 104.048C106.403 101.272 108.322 97.4738 108.75 93.375C109.678 93.0779 110.508 92.5333 111.15 91.8C111.663 91.2516 112.052 90.5996 112.291 89.888C112.531 89.1765 112.615 88.4218 112.538 87.675C112.173 84.1162 110.958 80.6974 108.993 77.7079C107.028 74.7184 104.372 72.246 101.25 70.5V70.5ZM105 26.25C105 27.2446 104.605 28.1984 103.902 28.9016C103.198 29.6049 102.245 30 101.25 30H97.5V22.5H101.25C102.245 22.5 103.198 22.8951 103.902 23.5984C104.605 24.3016 105 25.2554 105 26.25ZM71.25 22.5H90V30H71.25C72.2446 30 73.1984 29.6049 73.9017 28.9016C74.6049 28.1984 75 27.2446 75 26.25C75 25.2554 74.6049 24.3016 73.9017 23.5984C73.1984 22.8951 72.2446 22.5 71.25 22.5ZM18.75 48.75H46.875C47.3723 48.75 47.8492 48.9475 48.2008 49.2992C48.5525 49.6508 48.75 50.1277 48.75 50.625C48.75 51.1223 48.5525 51.5992 48.2008 51.9508C47.8492 52.3025 47.3723 52.5 46.875 52.5H18.75V48.75ZM90 75C93.33 74.9942 96.5672 76.0965 99.2015 78.1334C101.836 80.1703 103.718 83.0258 104.55 86.25H75.4875C76.3184 83.032 78.1945 80.1811 80.8212 78.1449C83.4479 76.1087 86.6765 75.0025 90 75ZM39.375 101.25C37.2138 101.25 35.1188 100.504 33.4446 99.1374C31.7703 97.7707 30.6197 95.8676 30.1875 93.75H48.75C48.3117 95.8995 47.1335 97.8272 45.4205 99.1976C43.7076 100.568 41.5682 101.294 39.375 101.25V101.25ZM91.875 101.25C89.7138 101.25 87.6188 100.504 85.9446 99.1374C84.2704 97.7707 83.1198 95.8676 82.6875 93.75H101.25C100.812 95.8995 99.6335 97.8272 97.9206 99.1976C96.2076 100.568 94.0683 101.294 91.875 101.25V101.25Z" fill="black"/>
</svg>
